<svg width="31" height="31" viewBox="0 0 31 31" fill="none" xmlns="http://www.w3.org/2000/svg">
<path d="M15.1037 5.84057C17.2678 5.80727 19.3606 6.61351 20.9431 8.09008L25.2054 3.92216C22.4708 1.35974 18.8509 -0.0453416 15.1037 0.00111641C12.3038 0.000469455 9.55902 0.778697 7.17618 2.24877C4.79334 3.71884 2.86642 5.8228 1.61092 8.32535L6.49479 12.1171C7.09197 10.3013 8.24406 8.71881 9.78861 7.59271C11.3332 6.4666 13.1922 5.85375 15.1037 5.84057Z" fill="#EA4335"/>
<path d="M29.603 15.4401C29.6208 14.4019 29.5135 13.3653 29.2835 12.3527H15.1038V17.9583H23.4281C23.2702 18.9411 22.9151 19.8818 22.3843 20.7239C21.8535 21.5659 21.1578 22.2919 20.3392 22.8582L25.1054 26.5497C26.5908 25.1156 27.759 23.3859 28.5344 21.4723C29.3099 19.5587 29.6754 17.5037 29.6073 15.4401H29.603Z" fill="#4285F4"/>
<path d="M6.51233 18.0914C6.18212 17.1299 6.01188 16.1207 6.00841 15.1041C6.01443 14.0891 6.17856 13.0813 6.49491 12.1169L1.61103 8.32507C0.551758 10.4281 0 12.7501 0 15.1048C0 17.4596 0.551758 19.7816 1.61103 21.8846L6.51233 18.0914Z" fill="#FBBC05"/>
<path d="M15.104 30.2076C18.7829 30.3116 22.3619 29.0025 25.1055 26.5494L20.3393 22.8578C18.7939 23.8938 16.9637 24.4218 15.104 24.3681C13.1942 24.3568 11.3364 23.7443 9.79431 22.6177C8.25217 21.4911 7.10395 19.9075 6.51252 18.0916L1.62864 21.8848C2.88076 24.3862 4.80453 26.4897 7.18449 27.9596C9.56446 29.4296 12.3066 30.208 15.104 30.2076Z" fill="#34A853"/>
</svg>
